<svg version="1.1" id="Layer_1" xmlns="http://www.w3.org/2000/svg" x="0" y="0" width="40" height="40" xml:space="preserve"><style>.st2{fill:#452000}</style><path d="M21.7 1.2c-1.2-.8-2 1.4-3.2 3.8-1.2 2.3-2.7 4.8-4.5 6.1-1.8 1.4-3.9 1.6-5.9 1.8s-3.9.3-5.2.9c-1.3.7-2 1.9-1.5 3.2s2.2 2.7 3.8 4.1S8.3 23.8 9 25c.7 1.2.7 2.4.4 4.6s-1 5.3-.8 7.1 1.4 2.3 2.6 2.2c1.3-.1 2.7-.9 4-1.9s2.5-2.2 3.5-3.1c1-.9 1.9-1.5 3-1.3s2.5 1.4 3.9 2.6c1.4 1.2 2.7 2.5 4 3.1s2.6.6 3.4.1 1.1-1.3.9-2.9c-.2-1.6-.9-3.9-1.5-5.4-.6-1.6-1.3-2.4-1.2-3.6.1-1.1.9-2.6 2.3-4.2s3.5-3.3 4.4-4.8c.9-1.4.7-2.5 0-3.2s-1.8-1.1-3.4-1.3c-1.6-.2-3.8-.1-5.4-.7-1.5-.5-2.4-1.6-3.6-4.1-1-2.3-2.6-6.2-3.8-7z" fill="#f6abb6"/><path d="M21.7 1.2c-1.2-.8-2 1.4-3.2 3.8-1.2 2.3-2.7 4.8-4.5 6.1-1.8 1.4-3.9 1.6-5.9 1.8s-3.9.3-5.2.9c-1.3.7-2 1.9-1.5 3.2s2.2 2.7 3.8 4.1S8.3 23.8 9 25c.7 1.2.7 2.4.4 4.6-.2 1-.4 2.1-.5 3.3C20.2 30.7 29 22.8 31.1 12.8c-.6-.1-1.2-.2-1.7-.4-1.5-.5-2.4-1.6-3.6-4.1-1.3-2.4-2.9-6.3-4.1-7.1z" fill="#f38ca0"/><path class="st2" d="M23.2 24c-.5-.6-2-1.3-2.6.8 0 .2-.2.3-.4.3s-.3-.2-.3-.4c1-3.5 4.3-1.7 4.2-.1 0 .2-.2.3-.4.3-.5-.1-.2-.5-.5-.9z"/><ellipse class="st2" cx="17.1" cy="19" rx="1.2" ry="1.8"/><ellipse class="st2" cx="25.3" cy="18.8" rx="1.2" ry="1.8"/></svg>